<svg width="13" height="24" viewBox="0 0 13 24" fill="none" xmlns="http://www.w3.org/2000/svg">
<rect width="13" height="24" fill="#E5E5E5"/>
<rect width="375" height="1859" transform="translate(-321 -623)" fill="white"/>
<rect x="-321" y="-623" width="375" height="1859" fill="#E5CF94"/>
<path d="M-298 -13.5277C-298 -16.2891 -295.761 -18.5277 -293 -18.5277H27C29.7614 -18.5277 32 -16.2891 32 -13.5277V105.294C32 108.056 29.7614 110.294 27 110.294H-293C-295.761 110.294 -298 108.056 -298 105.294V-13.5277Z" fill="#5F3305"/>
<path d="M6.10132 1.36395V22.2028" stroke="white" stroke-width="2" stroke-linecap="round" stroke-linejoin="round"/>
<path d="M10.2785 5.15277H4.01268C3.23717 5.15277 2.49343 5.50206 1.94506 6.12379C1.39669 6.74553 1.08862 7.58878 1.08862 8.46805C1.08862 9.34731 1.39669 10.1906 1.94506 10.8123C2.49343 11.434 3.23717 11.7833 4.01268 11.7833H8.1899C8.96541 11.7833 9.70915 12.1326 10.2575 12.7543C10.8059 13.3761 11.114 14.2193 11.114 15.0986C11.114 15.9779 10.8059 16.8211 10.2575 17.4429C9.70915 18.0646 8.96541 18.4139 8.1899 18.4139H1.08862" stroke="white" stroke-width="2" stroke-linecap="round" stroke-linejoin="round"/>
</svg>
