<svg width="31" height="29" viewBox="0 0 31 29" fill="none" xmlns="http://www.w3.org/2000/svg">
<rect width="31" height="29" fill="#E5E5E5"/>
<rect width="375" height="1859" transform="translate(-296 -885)" fill="white"/>
<rect x="-296" y="-885" width="375" height="1859" fill="#E5CF94"/>
<rect x="-275" y="-36" width="330" height="100" rx="5" fill="white" fill-opacity="0.8"/>
<path d="M1 6.39087L4.15034 6.39087L29.353 6.39087" stroke="#5F3305" stroke-width="2" stroke-linecap="round" stroke-linejoin="round"/>
<path d="M9.56495 6.39081V3.6954C9.56495 2.98054 9.87612 2.29495 10.43 1.78947C10.9839 1.28398 11.7351 1 12.5184 1H18.4253C19.2086 1 19.9598 1.28398 20.5137 1.78947C21.0676 2.29495 21.3788 2.98054 21.3788 3.6954V6.39081M25.809 6.39081V25.2586C25.809 25.9735 25.4978 26.6591 24.9439 27.1646C24.39 27.6701 23.6388 27.954 22.8555 27.954H8.08822C7.30492 27.954 6.55369 27.6701 5.99981 27.1646C5.44593 26.6591 5.13477 25.9735 5.13477 25.2586V6.39081H25.809Z" stroke="#5F3305" stroke-width="2" stroke-linecap="round" stroke-linejoin="round"/>
<path d="M12.5186 13.1294V21.2156" stroke="#5F3305" stroke-width="2" stroke-linecap="round" stroke-linejoin="round"/>
<path d="M18.4253 13.1294V21.2156" stroke="#5F3305" stroke-width="2" stroke-linecap="round" stroke-linejoin="round"/>
</svg>
