<svg width="24" height="24" viewBox="0 0 24 24" fill="none" xmlns="http://www.w3.org/2000/svg">
<rect width="24" height="24" fill="#E5E5E5"/>
<rect width="375" height="1859" transform="translate(-310 -469)" fill="white"/>
<rect x="-310" y="-469" width="375" height="1859" fill="#E5CF94"/>
<path d="M-287 -13.1231C-287 -15.8845 -284.761 -18.1231 -282 -18.1231H38C40.7614 -18.1231 43 -15.8845 43 -13.1231V105.699C43 108.46 40.7614 110.699 38 110.699H-282C-284.761 110.699 -287 108.46 -287 105.699V-13.1231Z" fill="white"/>
<path d="M9.16455 22.6074C9.85666 22.6074 10.4177 21.9712 10.4177 21.1865C10.4177 20.4018 9.85666 19.7657 9.16455 19.7657C8.47244 19.7657 7.91138 20.4018 7.91138 21.1865C7.91138 21.9712 8.47244 22.6074 9.16455 22.6074Z" stroke="#5F3305" stroke-width="1.8" stroke-linecap="round" stroke-linejoin="round"/>
<path d="M19.1899 22.6074C19.882 22.6074 20.4431 21.9712 20.4431 21.1865C20.4431 20.4018 19.882 19.7657 19.1899 19.7657C18.4978 19.7657 17.9368 20.4018 17.9368 21.1865C17.9368 21.9712 18.4978 22.6074 19.1899 22.6074Z" stroke="#5F3305" stroke-width="1.8" stroke-linecap="round" stroke-linejoin="round"/>
<path d="M1.22778 1.76849H5.02525L7.56956 15.297C7.65637 15.7621 7.89415 16.18 8.24128 16.4774C8.5884 16.7748 9.02275 16.9327 9.46829 16.9236H18.6961C19.1417 16.9327 19.576 16.7748 19.9232 16.4774C20.2703 16.18 20.5081 15.7621 20.5949 15.297L22.1139 6.82021H5.97462" stroke="#5F3305" stroke-width="2" stroke-linecap="round" stroke-linejoin="round"/>
</svg>
